<?xml version="1.0" encoding="iso-8859-1"?>
<!-- Generator: Adobe Illustrator 22.1.0, SVG Export Plug-In . SVG Version: 6.00 Build 0)  -->
<svg xmlns="http://www.w3.org/2000/svg" xmlns:xlink="http://www.w3.org/1999/xlink" version="1.1" id="Layer_1_1_" x="0px" y="0px" viewBox="0 0 64 64" style="enable-background:new 0 0 64 64;" xml:space="preserve" width="512" height="512">
<g>
	<g>
		<path style="fill:#F0BC5E;" d="M9,32c0,8.284,6.716,15,15,15V17C15.716,17,9,23.716,9,32z"/>
	</g>
	<g>
		<polygon style="fill:#F0BC5E;" points="40,51 40,25 32,25 32,51 29,51 36,61 43,51   "/>
	</g>
	<g>
		<polygon style="fill:#F0BC5E;" points="50,15 43,25 46,25 46,51 54,51 54,25 57,25   "/>
	</g>
	<g>
		<path d="M1,1v54h26v-2H3V11h58v42H45v2h18V1H1z M3,9V3h58v6H3z"/>
		<path d="M5,32c0,10.477,8.523,19,19,19h1V13h-1C13.523,13,5,21.523,5,32z M11.817,20.168c0.714,0.578,2.158,1.588,4.32,2.427    c-1.121,2.407-1.939,5.236-2.089,8.406h-7C7.295,26.8,9.059,23.006,11.817,20.168z M23,23.969V31h-6.95    c0.157-2.92,0.957-5.538,2.033-7.771C19.5,23.616,21.138,23.893,23,23.969z M19.062,21.415c1.334-2.253,2.829-3.996,3.938-5.126    v5.681C21.535,21.903,20.217,21.701,19.062,21.415z M23,33v7.031c-1.862,0.076-3.5,0.354-4.916,0.74    c-1.076-2.232-1.877-4.85-2.033-7.77H23z M23,42.031v5.68c-1.109-1.13-2.604-2.873-3.938-5.126    C20.217,42.299,21.535,42.097,23,42.031z M21.213,48.765c-2.958-0.49-5.651-1.754-7.886-3.565c0.683-0.513,1.93-1.319,3.744-1.998    C18.427,45.594,19.979,47.474,21.213,48.765z M17.071,20.798c-1.814-0.679-3.061-1.485-3.744-1.998    c2.235-1.811,4.928-3.075,7.886-3.565C19.978,16.526,18.427,18.406,17.071,20.798z M7.049,33h7c0.15,3.17,0.968,5.998,2.089,8.406    c-2.163,0.839-3.607,1.848-4.32,2.427C9.059,40.994,7.295,37.2,7.049,33z"/>
		<polygon points="41,40.535 47,36.535 47,24 44.92,24 50,16.744 55.08,24 53,24 53,39 55,39 55,26 58.921,26 50,13.256 41.079,26     45,26 45,35.465 39,39.465 39,52 41.08,52 36,59.256 30.92,52 33,52 33,37 31,37 31,50 27.079,50 36,62.744 44.921,50 41,50   "/>
		<rect x="5" y="5" width="2" height="2"/>
		<rect x="9" y="5" width="2" height="2"/>
		<rect x="13" y="5" width="2" height="2"/>
		<rect x="53" y="41" width="2" height="2"/>
		<rect x="53" y="45" width="2" height="2"/>
		<rect x="53" y="49" width="2" height="2"/>
		<rect x="31" y="33" width="2" height="2"/>
		<rect x="31" y="29" width="2" height="2"/>
		<rect x="31" y="25" width="2" height="2"/>
	</g>
</g>
</svg>
